<svg width="200" height="200" viewBox="0 0 200 200" fill="none" xmlns="http://www.w3.org/2000/svg">
  <!-- Styled Fleur-de-lis in our peach/coral color #DE735B (RGB: 222, 115, 86) -->
  <path d="M100 10C95.5817 26.6667 87.7961 35 76.6434 35C65.4906 35 56.2466 26.6667 48.9115 10C45.8392 22.625 44.0207 31.375 43.4558 36.25C42.891 41.125 42.8392 45.5 43.3006 49.375C43.7619 53.25 45.1868 57.5 47.5751 62.125C40.2401 58 34.4384 55.9375 30.1702 55.9375C25.9019 55.9375 21.1002 57.5 15.7651 60.625C21.5587 64.75 24.8658 67.75 25.5864 69.625C26.3071 71.5 26.6649 73.0625 26.6649 74.3125C26.6649 76.1875 26.0482 78.0625 24.8658 79.9375C23.6833 81.8125 21.5587 83.6875 18.4863 85.5625C14.3215 88.3125 11.3526 90.375 9.51863 91.75C7.68465 93.125 6.08816 94.625 4.72917 96.25C3.37019 97.875 2.69958 99.5 2.69958 101.125C2.69958 103 3.37019 104.875 4.72917 106.75C6.08816 108.625 7.80674 110.312 9.8764 111.812C11.9461 113.312 13.8837 114.5 15.6892 115.375C17.4947 116.25 19.9865 117.375 23.1623 118.75C21.0896 121.5 19.5447 123.75 18.5275 125.5C17.5103 127.25 16.6861 129.25 16.0178 131.5C15.3495 133.75 15.0153 136.25 15.0153 139C15.0153 141.25 15.3495 143.625 16.0178 146.125C16.6861 148.625 17.6777 151.062 18.9927 153.438C20.3077 155.812 21.7326 157.875 23.2775 159.625C24.8223 161.375 26.9468 163.25 29.6509 165.25C33.2922 168 37.2958 170 41.6675 171.25C46.0393 172.5 50.4619 172.75 54.9355 172C59.4091 171.25 63.6009 169.562 67.5008 166.938C71.4007 164.312 74.7078 160.812 77.4119 156.438C78.7709 154.188 79.6716 151.75 80.114 149.125C80.5564 146.5 80.518 144 80 141.625C79.4817 139.25 78.49 137 77.0246 134.875C75.5592 132.75 73.6472 130.75 71.2873 128.875C74.6963 128.875 77.2917 129.062 79.0972 129.438C80.9027 129.812 83.0782 130.625 85.6236 131.875C83.5509 126.25 81.9296 121.437 80.7599 117.438C79.5902 113.438 78.9989 110 78.9989 107.125C78.9989 102.125 80.2577 97.8125 82.7751 94.1875C85.2926 90.5625 89.0614 87.5 94.0815 85C89.0614 82.5 85.2926 79.4688 82.7751 75.9062C80.2577 72.3438 78.9989 68.125 78.9989 63.25C78.9989 60.375 79.5902 56.9375 80.7599 53C81.9296 49.0625 83.5509 44.25 85.6236 38.625C88.1671 44.25 90.3171 48.625 92.0734 51.75C93.8297 54.875 95.6383 57.375 97.499 59.25C99.3598 61.125 101.053 62.125 102.581 62.25C104.108 62.375 105.802 61.625 107.662 60C109.523 58.375 111.256 56.1875 112.862 53.4375C114.468 50.6875 116.39 46.8125 118.627 41.8125C120.459 47.9375 121.803 52.875 122.659 56.625C123.514 60.375 123.953 63.8125 123.976 67C123.999 70.1875 123.335 73.25 121.983 76.1875C120.632 79.125 118.472 81.9375 115.505 84.625C113.738 86.125 111.667 87.375 109.291 88.375C106.915 89.375 104.352 90.125 101.601 90.625C112.907 94.5 118.555 100.438 118.546 108.438C118.536 116.438 114.047 125.125 105.078 134.5C107.128 134 108.898 133.75 110.388 133.75C111.877 133.75 113.172 133.875 114.27 134.125C115.367 134.375 116.549 134.875 117.816 135.625C119.083 136.375 120.601 137.5 122.37 139C121.399 141 120.762 142.625 120.459 143.875C120.156 145.125 120.005 146.438 120.005 147.812C120.005 149.188 120.199 150.75 120.586 152.5C120.973 154.25 121.651 156.25 122.622 158.5C123.593 160.75 124.913 163 126.582 165.25C128.251 167.5 130.311 169.5 132.764 171.25C137.086 174.25 141.704 176 146.619 176.5C151.533 177 156.108 176.5 160.342 175C164.576 173.5 168.444 171.25 171.945 168.25C175.445 165.25 178.408 161.5 180.834 157C181.805 155 182.533 153 183.017 151C183.5 149 183.741 147 183.741 145C183.741 141.75 183.126 138.875 181.895 136.375C180.663 133.875 178.697 131.5 175.996 129.25C178.242 128.5 180.154 127.938 181.733 127.562C183.312 127.188 184.739 126.812 186.014 126.438C187.288 126.062 188.435 125.562 189.453 124.938C190.471 124.312 191.598 123.5 192.835 122.5C195.309 120.5 197.08 118.5 198.149 116.5C199.218 114.5 199.752 112.438 199.752 110.312C199.752 108.188 199.218 106.125 198.149 104.125C197.08 102.125 195.309 100.125 192.835 98.125C191.598 97.125 190.471 96.3125 189.453 95.6875C188.435 95.0625 187.288 94.5625 186.014 94.1875C184.739 93.8125 183.312 93.4375 181.733 93.0625C180.154 92.6875 178.242 92.125 175.996 91.375C178.697 89.125 180.663 86.75 181.895 84.25C183.126 81.75 183.741 78.875 183.741 75.625C183.741 73.625 183.5 71.625 183.017 69.625C182.533 67.625 181.805 65.625 180.834 63.625C178.408 59.125 175.445 55.375 171.945 52.375C168.444 49.375 164.576 47.125 160.342 45.625C156.108 44.125 151.533 43.625 146.619 44.125C141.704 44.625 137.086 46.375 132.764 49.375C130.311 51.125 128.251 53.125 126.582 55.375C124.913 57.625 123.593 59.875 122.622 62.125C121.651 64.375 120.973 66.375 120.586 68.125C120.199 69.875 120.005 71.4375 120.005 72.8125C120.005 74.1875 120.156 75.5 120.459 76.75C120.762 78 121.399 79.625 122.37 81.625C120.601 83.125 119.083 84.25 117.816 85C116.549 85.75 115.367 86.25 114.27 86.5C113.172 86.75 111.877 86.875 110.388 86.875C108.898 86.875 107.128 86.625 105.078 86.125C113.432 95.4375 117.608 104.062 117.608 112C117.608 119.938 112.061 126.062 100.968 130.375C101.976 130.375 103.179 130.5 104.577 130.75C105.975 131 107.396 131.438 108.841 132.062C110.286 132.688 111.654 133.438 112.947 134.312C114.24 135.188 115.305 136.312 116.141 137.688C116.978 139.062 117.396 140.438 117.396 141.812C117.396 143.188 116.978 144.75 116.141 146.5C115.305 148.25 113.925 150 112.002 151.75C110.078 153.5 107.72 154.875 104.924 155.875C102.128 156.875 99.0319 157.375 95.6364 157.375C88.3697 157.375 82.7751 155 78.8522 150.25C79.9448 154.625 81.4743 158.312 83.4436 161.312C85.413 164.312 87.5375 166.75 89.8173 168.625C92.0972 170.5 94.5125 171.812 97.0634 172.562C99.6142 173.312 102.184 173.688 104.771 173.688C109.523 173.688 113.738 172.375 117.415 169.75C121.093 167.125 124.14 163.75 126.557 159.625C129.426 154.75 130.98 149.625 131.22 144.25C131.46 138.875 130.52 133.812 128.4 129.062C126.28 124.312 123.317 120.062 119.512 116.312C115.707 112.562 111.338 109.625 106.405 107.5C111.338 105.375 115.707 102.438 119.512 98.6875C123.317 94.9375 126.28 90.6875 128.4 85.9375C130.52 81.1875 131.46 76.125 131.22 70.75C130.98 65.375 129.426 60.25 126.557 55.375C124.14 51.25 121.093 47.875 117.415 45.25C113.738 42.625 109.523 41.3125 104.771 41.3125C102.184 41.3125 99.6142 41.6875 97.0634 42.4375C94.5125 43.1875 92.0972 44.5 89.8173 46.375C87.5375 48.25 85.413 50.6875 83.4436 53.6875C81.4743 56.6875 79.9448 60.375 78.8522 64.75C82.7751 60 88.3697 57.625 95.6364 57.625C99.0319 57.625 102.128 58.125 104.924 59.125C107.72 60.125 110.078 61.5 112.002 63.25C113.925 65 115.305 66.75 116.141 68.5C116.978 70.25 117.396 71.8125 117.396 73.1875C117.396 74.5625 116.978 75.9375 116.141 77.3125C115.305 78.6875 114.24 79.8125 112.947 80.6875C111.654 81.5625 110.286 82.3125 108.841 82.9375C107.396 83.5625 105.975 84 104.577 84.25C103.179 84.5 101.976 84.625 100.968 84.625C112.061 88.9375 117.608 95.0625 117.608 103C117.608 110.938 113.432 119.562 105.078 128.875C107.128 128.375 108.898 128.125 110.388 128.125C111.877 128.125 113.172 128.25 114.27 128.5C115.367 128.75 116.549 129.25 117.816 130C119.083 130.75 120.601 131.875 122.37 133.375C121.399 135.375 120.762 137 120.459 138.25C120.156 139.5 120.005 140.812 120.005 142.188C120.005 143.562 120.199 145.125 120.586 146.875C120.973 148.625 121.651 150.625 122.622 152.875C123.593 155.125 124.913 157.375 126.582 159.625C128.251 161.875 130.311 163.875 132.764 165.625C137.086 168.625 141.704 170.375 146.619 170.875C151.533 171.375 156.108 170.875 160.342 169.375C164.576 167.875 168.444 165.625 171.945 162.625C175.445 159.625 178.408 155.875 180.834 151.375C181.805 149.375 182.533 147.375 183.017 145.375C183.5 143.375 183.741 141.375 183.741 139.375C183.741 136.125 183.126 133.25 181.895 130.75C180.663 128.25 178.697 125.875 175.996 123.625C178.242 122.875 180.154 122.312 181.733 121.938C183.312 121.562 184.739 121.188 186.014 120.812C187.288 120.438 188.435 119.938 189.453 119.312C190.471 118.688 191.598 117.875 192.835 116.875C195.309 114.875 197.08 112.875 198.149 110.875C199.218 108.875 199.752 106.812 199.752 104.688C199.752 102.562 199.218 100.5 198.149 98.5C197.08 96.5 195.309 94.5 192.835 92.5C191.598 91.5 190.471 90.6875 189.453 90.0625C188.435 89.4375 187.288 88.9375 186.014 88.5625C184.739 88.1875 183.312 87.8125 181.733 87.4375C180.154 87.0625 178.242 86.5 175.996 85.75C178.697 83.5 180.663 81.125 181.895 78.625C183.126 76.125 183.741 73.25 183.741 70C183.741 68 183.5 66 183.017 64C182.533 62 181.805 60 180.834 58C178.408 53.5 175.445 49.75 171.945 46.75C168.444 43.75 164.576 41.5 160.342 40C156.108 38.5 151.533 38 146.619 38.5C141.704 39 137.086 40.75 132.764 43.75C130.311 45.5 128.251 47.5 126.582 49.75C124.913 52 123.593 54.25 122.622 56.5C121.651 58.75 120.973 60.75 120.586 62.5C120.199 64.25 120.005 65.8125 120.005 67.1875C120.005 68.5625 120.156 69.875 120.459 71.125C120.762 72.375 121.399 74 122.37 76C120.601 77.5 119.083 78.625 117.816 79.375C116.549 80.125 115.367 80.625 114.27 80.875C113.172 81.125 111.877 81.25 110.388 81.25C108.898 81.25 107.128 81 105.078 80.5C114.047 89.875 118.536 98.5625 118.546 106.562C118.555 114.562 112.907 120.5 101.601 124.375C104.352 124.875 106.915 125.625 109.291 126.625C111.667 127.625 113.738 128.875 115.505 130.375C118.472 133.062 120.632 135.875 121.983 138.812C123.335 141.75 123.999 144.812 123.976 148C123.953 151.188 123.514 154.625 122.659 158.375C121.803 162.125 120.459 167.062 118.627 173.188C116.39 168.188 114.468 164.312 112.862 161.562C111.256 158.812 109.523 156.625 107.662 155C105.802 153.375 104.108 152.625 102.581 152.75C101.053 152.875 99.3598 153.875 97.499 155.75C95.6383 157.625 93.8297 160.125 92.0734 163.25C90.3171 166.375 88.1671 170.75 85.6236 176.375C83.5509 170.75 81.9296 165.938 80.7599 161.938C79.5902 157.938 78.9989 154.5 78.9989 151.625C78.9989 146.625 80.2577 142.312 82.7751 138.688C85.2926 135.062 89.0614 132 94.0815 129.5C89.0614 127 85.2926 123.969 82.7751 120.406C80.2577 116.844 78.9989 112.625 78.9989 107.75C78.9989 104.875 79.5902 101.438 80.7599 97.5C81.9296 93.5625 83.5509 88.75 85.6236 83.125C83.0782 84.375 80.9027 85.1875 79.0972 85.5625C77.2917 85.9375 74.6963 86.125 71.2873 86.125C73.6472 84.25 75.5592 82.25 77.0246 80.125C78.49 78 79.4817 75.75 80 73.375C80.518 71 80.5564 68.5 80.114 65.875C79.6716 63.25 78.7709 60.8125 77.4119 58.5625C74.7078 54.1875 71.4007 50.6875 67.5008 48.0625C63.6009 45.4375 59.4091 43.75 54.9355 43C50.4619 42.25 46.0393 42.5 41.6675 43.75C37.2958 45 33.2922 47 29.6509 49.75C26.9468 51.75 24.8223 53.625 23.2775 55.375C21.7326 57.125 20.3077 59.1875 18.9927 61.5625C17.6777 63.9375 16.6861 66.375 16.0178 68.875C15.3495 71.375 15.0153 73.75 15.0153 76C15.0153 78.75 15.3495 81.25 16.0178 83.5C16.6861 85.75 17.5103 87.75 18.5275 89.5C19.5447 91.25 21.0896 93.5 23.1623 96.25C19.9865 97.625 17.4947 98.75 15.6892 99.625C13.8837 100.5 11.9461 101.688 9.8764 103.188C7.80674 104.688 6.08816 106.375 4.72917 108.25C3.37019 110.125 2.69958 112 2.69958 113.875C2.69958 115.5 3.37019 117.125 4.72917 118.75C6.08816 120.375 7.68465 121.875 9.51863 123.25C11.3526 124.625 14.3215 126.688 18.4863 129.438C21.5587 131.312 23.6833 133.188 24.8658 135.062C26.0482 136.938 26.6649 138.812 26.6649 140.688C26.6649 141.938 26.3071 143.5 25.5864 145.375C24.8658 147.25 21.5587 150.25 15.7651 154.375C21.1002 157.5 25.9019 159.062 30.1702 159.062C34.4384 159.062 40.2401 157 47.5751 152.875C45.1868 157.5 43.7619 161.75 43.3006 165.625C42.8392 169.5 42.891 173.875 43.4558 178.75C44.0207 183.625 45.8392 192.375 48.9115 205C56.2466 188.333 65.4906 180 76.6434 180C87.7961 180 95.5817 188.333 100 205C104.418 188.333 112.204 180 123.357 180C134.509 180 143.753 188.333 151.088 205C154.161 192.375 155.979 183.625 156.544 178.75C157.109 173.875 157.161 169.5 156.699 165.625C156.238 161.75 154.813 157.5 152.425 152.875C159.76 157 165.562 159.062 169.83 159.062C174.098 159.062 178.9 157.5 184.235 154.375C178.441 150.25 175.134 147.25 174.414 145.375C173.693 143.5 173.335 141.938 173.335 140.688C173.335 138.812 173.952 136.938 175.134 135.062C176.317 133.188 178.441 131.312 181.514 129.438C185.678 126.688 188.647 124.625 190.481 123.25C192.315 121.875 193.912 120.375 195.271 118.75C196.63 117.125 197.3 115.5 197.3 113.875C197.3 112 196.63 110.125 195.271 108.25C193.912 106.375 192.193 104.688 190.124 103.188C188.054 101.688 186.116 100.5 184.311 99.625C182.505 98.75 180.013 97.625 176.838 96.25C178.91 93.5 180.455 91.25 181.472 89.5C182.49 87.75 183.314 85.75 183.982 83.5C184.651 81.25 184.985 78.75 184.985 76C184.985 73.75 184.651 71.375 183.982 68.875C183.314 66.375 182.322 63.9375 181.007 61.5625C179.692 59.1875 178.267 57.125 176.722 55.375C175.178 53.625 173.053 51.75 170.349 49.75C166.708 47 162.704 45 158.332 43.75C153.961 42.5 149.538 42.25 145.064 43C140.591 43.75 136.399 45.4375 132.499 48.0625C128.599 50.6875 125.292 54.1875 122.588 58.5625C121.229 60.8125 120.328 63.25 119.886 65.875C119.444 68.5 119.482 71 120 73.375C120.518 75.75 121.51 78 122.975 80.125C124.441 82.25 126.353 84.25 128.713 86.125C125.304 86.125 122.708 85.9375 120.903 85.5625C119.097 85.1875 116.922 84.375 114.376 83.125C116.449 88.75 118.07 93.5625 119.24 97.5C120.41 101.438 121.001 104.875 121.001 107.75C121.001 112.625 119.742 116.844 117.225 120.406C114.707 123.969 110.939 127 105.918 129.5C110.939 132 114.707 135.062 117.225 138.688C119.742 142.312 121.001 146.625 121.001 151.625C121.001 154.5 120.41 157.938 119.24 161.938C118.07 165.938 116.449 170.75 114.376 176.375C116.922 175.125 119.097 174.312 120.903 173.938C122.708 173.562 125.304 173.375 128.713 173.375C126.353 175.25 124.441 177.25 122.975 179.375C121.51 181.5 120.518 183.75 120 186.125C119.482 188.5 119.444 191 119.886 193.625C120.328 196.25 121.229 198.688 122.588 200.938C125.292 205.312 128.599 208.812 132.499 211.438C136.399 214.062 140.591 215.75 145.064 216.5C149.538 217.25 153.961 217 158.332 215.75C162.704 214.5 166.708 212.5 170.349 209.75C173.053 207.75 175.178 205.875 176.722 204.125C178.267 202.375 179.692 200.312 181.007 197.938C182.322 195.562 183.314 193.125 183.982 190.625C184.651 188.125 184.985 185.75 184.985 183.5C184.985 180.75 184.651 178.25 183.982 176C183.314 173.75 182.49 171.75 181.472 170C180.455 168.25 178.91 166 176.838 163.25C180.013 161.875 182.505 160.75 184.311 159.875C186.116 159 188.054 157.812 190.124 156.312C192.193 154.812 193.912 153.125 195.271 151.25C196.63 149.375 197.3 147.5 197.3 145.625C197.3 144 196.63 142.375 195.271 140.75C193.912 139.125 192.315 137.625 190.481 136.25C188.647 134.875 185.678 132.812 181.514 130.062C178.441 128.188 176.317 126.312 175.134 124.438C173.952 122.562 173.335 120.688 173.335 118.812C173.335 117.562 173.693 116 174.414 114.125C175.134 112.25 178.441 109.25 184.235 105.125C178.9 102 174.098 100.438 169.83 100.438C165.562 100.438 159.76 102.5 152.425 106.625C154.813 102 156.238 97.75 156.699 93.875C157.161 90 157.109 85.625 156.544 80.75C155.979 75.875 154.161 67.125 151.088 54.5C143.753 71.1667 134.509 79.5 123.357 79.5C112.204 79.5 104.418 71.1667 100 54.5" fill="#DE735B"/>
  
  <!-- Light decorative accents -->
  <path d="M100 10C95.5817 26.6667 87.7961 35 76.6434 35C65.4906 35 56.2466 26.6667 48.9115 10C45.8392 22.625 44.0207 31.375 43.4558 36.25" stroke="#FBE0D8" stroke-width="1.5" stroke-linecap="round"/>
  <path d="M151.088 54.5C143.753 71.1667 134.509 79.5 123.357 79.5C112.204 79.5 104.418 71.1667 100 54.5" stroke="#FBE0D8" stroke-width="1.5" stroke-linecap="round"/>
  
  <!-- Subtle glow effect -->
  <circle cx="100" cy="100" r="70" fill="url(#paint0_radial)" fill-opacity="0.2"/>
  
  <defs>
    <radialGradient id="paint0_radial" cx="0" cy="0" r="1" gradientUnits="userSpaceOnUse" gradientTransform="translate(100 100) rotate(90) scale(70)">
      <stop stop-color="#DE735B"/>
      <stop offset="1" stop-color="#DE735B" stop-opacity="0"/>
    </radialGradient>
  </defs>
</svg>