<svg version="1.1" id="Layer_1" xmlns="http://www.w3.org/2000/svg" xmlns:xlink="http://www.w3.org/1999/xlink" x="0px" y="0px"
	 width="100%" viewBox="0 0 2251 2251" enable-background="new 0 0 2251 2251" xml:space="preserve">
<path fill="#FFFFFF" opacity="1.000000" stroke="none" 
	d="
M1332.000000,2254.000000 
	C888.049011,2254.000000 445.098053,2254.000000 2.073551,2254.000000 
	C2.073551,1503.465454 2.073551,752.930908 2.073551,2.198183 
	C752.451355,2.198183 1502.902832,2.198183 2253.677246,2.198183 
	C2253.677246,752.666565 2253.677246,1503.333252 2253.677246,2254.000000 
	C1946.930054,2254.000000 1639.964966,2254.000000 1332.000000,2254.000000 
M665.219543,138.153152 
	C658.914185,141.161392 652.574646,144.100479 646.308716,147.188812 
	C594.265381,172.839630 544.517456,202.352875 497.059113,235.743576 
	C457.280579,263.730957 419.372620,294.095581 383.977509,327.394318 
	C360.726593,349.268097 338.584869,372.370941 316.684448,395.618683 
	C281.953094,432.486694 250.997650,472.462738 222.436615,514.255737 
	C189.337158,562.689880 160.152618,613.378540 135.238434,666.543762 
	C118.708405,701.817627 103.989677,737.788513 91.238266,774.577332 
	C66.139137,846.990417 49.024830,921.202148 39.409649,997.285278 
	C33.777267,1041.853394 31.929672,1086.573242 30.432781,1131.353394 
	C30.067671,1142.275757 31.234518,1153.249023 31.689116,1164.199219 
	C32.461193,1182.796631 32.343510,1201.482544 34.191566,1219.972168 
	C37.387245,1251.944702 41.152023,1283.891602 45.849518,1315.675903 
	C53.679043,1368.652344 66.779205,1420.454834 83.119659,1471.429077 
	C104.610695,1538.470581 132.229431,1602.895020 166.226929,1664.556885 
	C191.804489,1710.947388 220.452332,1755.360107 252.511765,1797.547241 
	C289.821198,1846.642822 330.153015,1893.070312 375.773621,1934.652710 
	C399.118927,1955.931763 422.545868,1977.241211 447.244263,1996.892334 
	C512.571716,2048.869629 582.944580,2092.936768 658.546387,2128.595947 
	C696.478394,2146.487549 735.137268,2162.475586 774.830261,2175.987305 
	C825.937134,2193.383789 878.018738,2206.959717 931.135986,2216.720947 
	C976.301758,2225.020996 1021.793030,2230.800049 1067.602905,2232.954346 
	C1096.103638,2234.294434 1124.636719,2235.669434 1153.315552,2234.402832 
	C1185.542603,2232.979248 1217.694458,2231.471680 1249.801758,2228.183350 
	C1311.498169,2221.864014 1372.056274,2209.869141 1431.671631,2192.986328 
	C1502.922485,2172.808105 1571.375122,2145.588135 1637.084961,2111.373291 
	C1681.145752,2088.431152 1723.564941,2062.841797 1764.069702,2034.123779 
	C1823.408813,1992.052368 1878.371582,1944.923950 1928.334229,1891.951050 
	C1954.147827,1864.582153 1978.746338,1836.218384 2001.668091,1806.421265 
	C2070.103271,1717.458374 2123.887695,1620.445801 2162.721680,1515.023438 
	C2195.741455,1425.384644 2216.320557,1333.028442 2225.533936,1238.102661 
	C2228.969238,1202.706055 2230.849609,1167.128052 2230.153809,1131.547485 
	C2229.602051,1103.330322 2228.431885,1075.076904 2226.118164,1046.956055 
	C2223.728027,1017.902222 2220.302979,988.891174 2216.125488,960.035828 
	C2208.354980,906.363281 2195.417969,853.798584 2178.970703,802.162598 
	C2153.546875,722.344360 2119.546875,646.364258 2076.674805,574.285217 
	C2016.989014,473.938507 1943.461426,385.146881 1855.764648,308.202606 
	C1778.785400,240.661896 1694.088135,184.694321 1601.380005,140.913757 
	C1539.275269,111.585297 1475.068604,88.220398 1408.643433,70.820107 
	C1321.682129,48.040333 1233.180298,36.754593 1143.395142,35.325943 
	C1109.128052,34.780693 1074.904785,36.401501 1040.719849,39.122330 
	C999.923096,42.369392 959.494629,47.973877 919.310730,55.701267 
	C831.676880,72.553329 747.511841,100.007149 665.219543,138.153152 
z"/>
<path fill="#A85F46" opacity="1.000000" stroke="none" 
	d="
M665.912415,137.862213 
	C747.511841,100.007149 831.676880,72.553329 919.310730,55.701267 
	C959.494629,47.973877 999.923096,42.369392 1040.719849,39.122330 
	C1074.904785,36.401501 1109.128052,34.780693 1143.395142,35.325943 
	C1233.180298,36.754593 1321.682129,48.040333 1408.643433,70.820107 
	C1475.068604,88.220398 1539.275269,111.585297 1601.380005,140.913757 
	C1694.088135,184.694321 1778.785400,240.661896 1855.764648,308.202606 
	C1943.461426,385.146881 2016.989014,473.938507 2076.674805,574.285217 
	C2119.546875,646.364258 2153.546875,722.344360 2178.970703,802.162598 
	C2195.417969,853.798584 2208.354980,906.363281 2216.125488,960.035828 
	C2220.302979,988.891174 2223.728027,1017.902222 2226.118164,1046.956055 
	C2228.431885,1075.076904 2229.602051,1103.330322 2230.153809,1131.547485 
	C2230.849609,1167.128052 2228.969238,1202.706055 2225.533936,1238.102661 
	C2216.320557,1333.028442 2195.741455,1425.384644 2162.721680,1515.023438 
	C2123.887695,1620.445801 2070.103271,1717.458374 2001.668091,1806.421265 
	C1978.746338,1836.218384 1954.147827,1864.582153 1928.334229,1891.951050 
	C1878.371582,1944.923950 1823.408813,1992.052368 1764.069702,2034.123779 
	C1723.564941,2062.841797 1681.145752,2088.431152 1637.084961,2111.373291 
	C1571.375122,2145.588135 1502.922485,2172.808105 1431.671631,2192.986328 
	C1372.056274,2209.869141 1311.498169,2221.864014 1249.801758,2228.183350 
	C1217.694458,2231.471680 1185.542603,2232.979248 1153.315552,2234.402832 
	C1124.636719,2235.669434 1096.103638,2234.294434 1067.602905,2232.954346 
	C1021.793030,2230.800049 976.301758,2225.020996 931.135986,2216.720947 
	C878.018738,2206.959717 825.937134,2193.383789 774.830261,2175.987305 
	C735.137268,2162.475586 696.478394,2146.487549 658.546387,2128.595947 
	C582.944580,2092.936768 512.571716,2048.869629 447.244263,1996.892334 
	C422.545868,1977.241211 399.118927,1955.931763 375.773621,1934.652710 
	C330.153015,1893.070312 289.821198,1846.642822 252.511765,1797.547241 
	C220.452332,1755.360107 191.804489,1710.947388 166.226929,1664.556885 
	C132.229431,1602.895020 104.610695,1538.470581 83.119659,1471.429077 
	C66.779205,1420.454834 53.679043,1368.652344 45.849518,1315.675903 
	C41.152023,1283.891602 37.387245,1251.944702 34.191566,1219.972168 
	C32.343510,1201.482544 32.461193,1182.796631 31.689116,1164.199219 
	C31.234518,1153.249023 30.067671,1142.275757 30.432781,1131.353394 
	C31.929672,1086.573242 33.777267,1041.853394 39.409649,997.285278 
	C49.024830,921.202148 66.139137,846.990417 91.238266,774.577332 
	C103.989677,737.788513 118.708405,701.817627 135.238434,666.543762 
	C160.152618,613.378540 189.337158,562.689880 222.436615,514.255737 
	C250.997650,472.462738 281.953094,432.486694 316.684448,395.618683 
	C338.584869,372.370941 360.726593,349.268097 383.977509,327.394318 
	C419.372620,294.095581 457.280579,263.730957 497.059113,235.743576 
	C544.517456,202.352875 594.265381,172.839630 646.308716,147.188812 
	C652.574646,144.100479 658.914185,141.161392 665.912415,137.862213 
M1400.308594,1836.998901 
	C1400.308594,1814.101685 1400.308594,1791.204590 1400.308594,1767.328613 
	C1357.629761,1767.328613 1316.117676,1767.328613 1273.528809,1767.328613 
	C1274.073975,1763.344849 1274.217529,1760.424683 1274.896240,1757.634644 
	C1280.240967,1735.659790 1285.707886,1713.714844 1291.098999,1691.751221 
	C1302.029053,1647.222900 1313.542603,1602.826782 1323.709839,1558.124634 
	C1339.397461,1489.152100 1406.799683,1439.827026 1482.089233,1454.480469 
	C1555.781250,1468.823242 1603.386230,1542.243774 1587.590820,1615.924438 
	C1586.702515,1620.067749 1585.347656,1624.111206 1584.006104,1628.934326 
	C1618.337158,1640.036011 1651.964111,1650.910034 1686.015869,1661.921387 
	C1698.330688,1624.589233 1701.031982,1587.379150 1695.121582,1549.802612 
	C1686.408447,1494.406738 1661.322632,1447.432617 1620.137207,1409.068115 
	C1599.427612,1389.777222 1576.148804,1374.594482 1550.099854,1363.826050 
	C1493.063110,1340.247070 1434.837402,1337.688965 1376.667236,1358.152222 
	C1299.313721,1385.363525 1248.052368,1438.998413 1223.781860,1517.314941 
	C1215.148071,1545.174438 1209.534180,1573.969849 1202.546143,1602.339111 
	C1191.261353,1648.151123 1179.987183,1693.965698 1168.691650,1739.775024 
	C1166.471069,1748.780884 1164.173462,1757.767578 1161.923096,1766.716919 
	C1140.563965,1766.716919 1120.010986,1766.716919 1099.242310,1766.716919 
	C1098.658813,1764.697144 1098.154663,1763.152954 1097.767090,1761.579834 
	C1088.229980,1722.869873 1078.747559,1684.146484 1069.165771,1645.447632 
	C1060.297607,1609.631470 1050.371704,1574.046387 1042.617432,1537.992554 
	C1030.214478,1480.324097 1001.532349,1432.957642 955.371765,1396.684448 
	C897.319031,1351.066528 831.104675,1336.315063 758.906799,1349.327393 
	C706.469360,1358.778320 662.540344,1384.360962 626.384766,1423.489868 
	C606.274658,1445.253906 591.046936,1470.003052 579.975342,1497.387817 
	C562.932739,1539.541016 559.986755,1583.242676 566.446228,1627.780396 
	C568.090027,1639.114380 571.530151,1650.187744 574.304077,1662.062134 
	C609.177979,1650.822388 642.626648,1640.041992 676.351318,1629.172607 
	C675.732056,1626.078613 675.366028,1623.817383 674.821960,1621.599976 
	C670.590576,1604.354370 669.101746,1587.065796 671.551941,1569.279785 
	C676.529053,1533.151611 693.577148,1503.944214 721.706299,1481.430298 
	C752.691162,1456.630981 788.254700,1447.702515 827.547119,1453.880615 
	C879.563904,1462.059448 923.947998,1503.364746 936.243286,1554.389038 
	C950.957520,1615.451294 966.123535,1676.404541 981.060059,1737.413330 
	C983.404846,1746.991211 985.570312,1756.612793 988.107239,1767.446167 
	C949.739807,1767.446167 912.569702,1767.446167 874.860291,1767.446167 
	C874.860291,1803.292847 874.860291,1838.106445 874.860291,1873.415039 
	C1050.038696,1873.415039 1224.788818,1873.415039 1400.308838,1873.415039 
	C1400.308838,1861.541870 1400.308838,1850.269897 1400.308594,1836.998901 
M1158.965942,703.982605 
	C1151.270752,687.942261 1143.575562,671.901978 1135.033447,654.096313 
	C1046.600098,829.866333 959.150513,1003.681152 871.573181,1177.749878 
	C956.538086,1263.775879 1040.941284,1349.233154 1125.734863,1435.085815 
	C1129.657593,1431.692749 1132.755249,1429.241943 1135.593628,1426.520874 
	C1153.611206,1409.247559 1171.600464,1391.944702 1189.544556,1374.595215 
	C1230.941650,1334.570068 1272.273438,1294.477173 1313.699463,1254.481934 
	C1336.922607,1232.060791 1360.264038,1209.761963 1383.590454,1187.448120 
	C1388.991821,1182.281128 1389.243774,1182.070557 1385.823975,1174.616089 
	C1380.415039,1162.826050 1374.882935,1151.090454 1369.250366,1139.405396 
	C1341.807129,1082.470703 1314.299927,1025.566772 1286.841919,968.639221 
	C1269.065552,931.784485 1251.369629,894.891113 1233.575073,858.045227 
	C1208.978149,807.114563 1184.322266,756.212280 1158.965942,703.982605 
M811.461304,518.463074 
	C796.831787,533.462158 781.377747,547.750183 767.719910,563.587280 
	C717.025269,622.370850 683.360046,689.935608 665.687683,765.519714 
	C659.927734,790.154968 656.704712,815.167175 654.501831,840.296753 
	C653.580383,850.808472 654.348572,861.468323 654.348572,872.667358 
	C689.443970,872.667358 724.296509,872.667358 760.504578,872.667358 
	C762.741455,769.126282 799.286865,679.707581 873.841553,607.565369 
	C948.781677,535.050171 1039.454468,500.311249 1143.652588,503.517487 
	C1229.845215,506.169708 1306.460449,536.270203 1371.307007,592.952759 
	C1455.387573,666.447632 1497.838013,760.229126 1500.343994,871.696533 
	C1510.178345,874.097107 1599.791626,873.811768 1607.982544,871.210083 
	C1607.438599,864.529297 1606.905762,857.631531 1606.309937,850.739136 
	C1605.025024,835.875305 1604.132324,820.962463 1602.326538,806.161499 
	C1596.104492,755.166382 1580.710449,706.835449 1557.893677,660.978516 
	C1530.938843,606.805054 1494.967651,559.348450 1449.882935,518.765991 
	C1420.516113,492.331726 1388.562256,469.708557 1353.713013,451.255615 
	C1297.185913,421.324066 1237.104736,403.309601 1173.234985,397.810699 
	C1135.920288,394.598053 1098.767822,395.272369 1061.769409,400.633545 
	C1007.656128,408.474792 956.316956,425.154602 907.977722,450.800598 
	C873.438416,469.125122 841.474548,491.183502 811.461304,518.463074 
z"/>
<path fill="#FAF5F4" opacity="1.000000" stroke="none" 
	d="
M1400.308716,1837.998291 
	C1400.308838,1850.269897 1400.308838,1861.541870 1400.308838,1873.415039 
	C1224.788818,1873.415039 1050.038696,1873.415039 874.860291,1873.415039 
	C874.860291,1838.106445 874.860291,1803.292847 874.860291,1767.446167 
	C912.569702,1767.446167 949.739807,1767.446167 988.107239,1767.446167 
	C985.570312,1756.612793 983.404846,1746.991211 981.060059,1737.413330 
	C966.123535,1676.404541 950.957520,1615.451294 936.243286,1554.389038 
	C923.947998,1503.364746 879.563904,1462.059448 827.547119,1453.880615 
	C788.254700,1447.702515 752.691162,1456.630981 721.706299,1481.430298 
	C693.577148,1503.944214 676.529053,1533.151611 671.551941,1569.279785 
	C669.101746,1587.065796 670.590576,1604.354370 674.821960,1621.599976 
	C675.366028,1623.817383 675.732056,1626.078613 676.351318,1629.172607 
	C642.626648,1640.041992 609.177979,1650.822388 574.304077,1662.062134 
	C571.530151,1650.187744 568.090027,1639.114380 566.446228,1627.780396 
	C559.986755,1583.242676 562.932739,1539.541016 579.975342,1497.387817 
	C591.046936,1470.003052 606.274658,1445.253906 626.384766,1423.489868 
	C662.540344,1384.360962 706.469360,1358.778320 758.906799,1349.327393 
	C831.104675,1336.315063 897.319031,1351.066528 955.371765,1396.684448 
	C1001.532349,1432.957642 1030.214478,1480.324097 1042.617432,1537.992554 
	C1050.371704,1574.046387 1060.297607,1609.631470 1069.165771,1645.447632 
	C1078.747559,1684.146484 1088.229980,1722.869873 1097.767090,1761.579834 
	C1098.154663,1763.152954 1098.658813,1764.697144 1099.242310,1766.716919 
	C1120.010986,1766.716919 1140.563965,1766.716919 1161.923096,1766.716919 
	C1164.173462,1757.767578 1166.471069,1748.780884 1168.691650,1739.775024 
	C1179.987183,1693.965698 1191.261353,1648.151123 1202.546143,1602.339111 
	C1209.534180,1573.969849 1215.148071,1545.174438 1223.781860,1517.314941 
	C1248.052368,1438.998413 1299.313721,1385.363525 1376.667236,1358.152222 
	C1434.837402,1337.688965 1493.063110,1340.247070 1550.099854,1363.826050 
	C1576.148804,1374.594482 1599.427612,1389.777222 1620.137207,1409.068115 
	C1661.322632,1447.432617 1686.408447,1494.406738 1695.121582,1549.802612 
	C1701.031982,1587.379150 1698.330688,1624.589233 1686.015869,1661.921387 
	C1651.964111,1650.910034 1618.337158,1640.036011 1584.006104,1628.934326 
	C1585.347656,1624.111206 1586.702515,1620.067749 1587.590820,1615.924438 
	C1603.386230,1542.243774 1555.781250,1468.823242 1482.089233,1454.480469 
	C1406.799683,1439.827026 1339.397461,1489.152100 1323.709839,1558.124634 
	C1313.542603,1602.826782 1302.029053,1647.222900 1291.098999,1691.751221 
	C1285.707886,1713.714844 1280.240967,1735.659790 1274.896240,1757.634644 
	C1274.217529,1760.424683 1274.073975,1763.344849 1273.528809,1767.328613 
	C1316.117676,1767.328613 1357.629761,1767.328613 1400.308594,1767.328613 
	C1400.308594,1791.204590 1400.308594,1814.101685 1400.308716,1837.998291 
z"/>
<path fill="#FAF5F4" opacity="1.000000" stroke="none" 
	d="
M1159.328857,704.640198 
	C1184.322266,756.212280 1208.978149,807.114563 1233.575073,858.045227 
	C1251.369629,894.891113 1269.065552,931.784485 1286.841919,968.639221 
	C1314.299927,1025.566772 1341.807129,1082.470703 1369.250366,1139.405396 
	C1374.882935,1151.090454 1380.415039,1162.826050 1385.823975,1174.616089 
	C1389.243774,1182.070557 1388.991821,1182.281128 1383.590454,1187.448120 
	C1360.264038,1209.761963 1336.922607,1232.060791 1313.699463,1254.481934 
	C1272.273438,1294.477173 1230.941650,1334.570068 1189.544556,1374.595215 
	C1171.600464,1391.944702 1153.611206,1409.247559 1135.593628,1426.520874 
	C1132.755249,1429.241943 1129.657593,1431.692749 1125.734863,1435.085815 
	C1040.941284,1349.233154 956.538086,1263.775879 871.573181,1177.749878 
	C959.150513,1003.681152 1046.600098,829.866333 1135.033447,654.096313 
	C1143.575562,671.901978 1151.270752,687.942261 1159.328857,704.640198 
M1170.092407,1243.017822 
	C1171.899658,1241.559814 1173.828369,1240.228271 1175.495361,1238.624390 
	C1194.676514,1220.170288 1213.872437,1201.730591 1232.945312,1183.164673 
	C1241.461792,1174.874512 1249.709961,1166.308716 1258.350220,1157.595337 
	C1216.703979,1071.238159 1175.176636,985.127930 1132.970703,897.610229 
	C1088.961426,985.068848 1045.762573,1070.917114 1002.217407,1157.453613 
	C1044.995361,1198.779663 1085.337646,1242.393677 1128.118896,1284.038696 
	C1142.421021,1270.054810 1155.743896,1257.028442 1170.092407,1243.017822 
z"/>
<path fill="#F9F5F4" opacity="1.000000" stroke="none" 
	d="
M811.966736,517.962830 
	C841.474548,491.183502 873.438416,469.125122 907.977722,450.800598 
	C956.316956,425.154602 1007.656128,408.474792 1061.769409,400.633545 
	C1098.767822,395.272369 1135.920288,394.598053 1173.234985,397.810699 
	C1237.104736,403.309601 1297.185913,421.324066 1353.713013,451.255615 
	C1388.562256,469.708557 1420.516113,492.331726 1449.882935,518.765991 
	C1494.967651,559.348450 1530.938843,606.805054 1557.893677,660.978516 
	C1580.710449,706.835449 1596.104492,755.166382 1602.326538,806.161499 
	C1604.132324,820.962463 1605.025024,835.875305 1606.309937,850.739136 
	C1606.905762,857.631531 1607.438599,864.529297 1607.982544,871.210083 
	C1599.791626,873.811768 1510.178345,874.097107 1500.343994,871.696533 
	C1497.838013,760.229126 1455.387573,666.447632 1371.307007,592.952759 
	C1306.460449,536.270203 1229.845215,506.169708 1143.652588,503.517487 
	C1039.454468,500.311249 948.781677,535.050171 873.841553,607.565369 
	C799.286865,679.707581 762.741455,769.126282 760.504578,872.667358 
	C724.296509,872.667358 689.443970,872.667358 654.348572,872.667358 
	C654.348572,861.468323 653.580383,850.808472 654.501831,840.296753 
	C656.704712,815.167175 659.927734,790.154968 665.687683,765.519714 
	C683.360046,689.935608 717.025269,622.370850 767.719910,563.587280 
	C781.377747,547.750183 796.831787,533.462158 811.966736,517.962830 
z"/>
<path fill="#A86047" opacity="1.000000" stroke="none" 
	d="
M1169.579590,1243.510010 
	C1155.743896,1257.028442 1142.421021,1270.054810 1128.118896,1284.038696 
	C1085.337646,1242.393677 1044.995361,1198.779663 1002.217407,1157.453613 
	C1045.762573,1070.917114 1088.961426,985.068848 1132.970703,897.610229 
	C1175.176636,985.127930 1216.703979,1071.238159 1258.350220,1157.595337 
	C1249.709961,1166.308716 1241.461792,1174.874512 1232.945312,1183.164673 
	C1213.872437,1201.730591 1194.676514,1220.170288 1175.495361,1238.624390 
	C1173.828369,1240.228271 1171.899658,1241.559814 1169.579590,1243.510010 
z"/>
</svg>