<svg width="200" height="60" viewBox="0 0 200 60" fill="none" xmlns="http://www.w3.org/2000/svg">
  <rect width="200" height="60" fill="transparent" />
  <path d="M15.5078 38H12.9766V21.0078H7.25781V18.875H21.2188V21.0078H15.5078V38ZM31.0156 38H22.9531V18.875H26.1641V35.8281H31.0156V38ZM44.0859 38H41.5469V21.0078H35.8359V18.875H49.7891V21.0078H44.0859V38ZM61.1719 38H52.0938V18.875H61.1719V21.0078H55.3125V26.8984H60.5391V28.9922H55.3125V35.8672H61.1719V38ZM62.9766 18.875H66.8438L71.25 34.0391L75.6641 18.875H79.4922L73.4219 38H69.0781L62.9766 18.875Z" fill="#733A19"/>
  <path d="M89.0391 38H85.8281V21.0078H81.0938V18.875H93.7734V21.0078H89.0391V38ZM103.516 38.293C100.693 38.293 98.6562 37.4531 97.4062 35.7734C96.1693 34.0938 95.5508 31.7617 95.5508 28.7773C95.5508 25.7799 96.1693 23.4479 97.4062 21.7812C98.6562 20.1016 100.693 19.2617 103.516 19.2617C106.348 19.2617 108.379 20.1016 109.609 21.7812C110.853 23.4479 111.473 25.7799 111.473 28.7773C111.473 31.7617 110.853 34.0938 109.609 35.7734C108.379 37.4531 106.348 38.293 103.516 38.293ZM103.516 36.0859C105.352 36.0859 106.641 35.5156 107.383 34.375C108.125 33.2344 108.496 31.3594 108.496 28.75C108.496 26.1406 108.125 24.2656 107.383 23.125C106.641 21.9844 105.352 21.4141 103.516 21.4141C101.68 21.4141 100.391 21.9844 99.6484 23.125C98.9062 24.2656 98.5352 26.1406 98.5352 28.75C98.5352 31.3594 98.9062 33.2344 99.6484 34.375C100.391 35.5156 101.68 36.0859 103.516 36.0859ZM121.777 38H118.566V18.875H121.738L130.43 33.2812V18.875H133.641V38H130.488L121.777 23.6406V38Z" fill="#BFAF8F"/>
</svg> 